# xmcd
#
# Track frame offsets: 
#        150
#        25017
#        41905
#        69430
#        86165
#        120142
#        153937
#        172047
#        190555
#        210512
#        236827
#        264690
#        290275
#
# Disc length: 4161 seconds
#
# Revision: 0
# Processed by: cddbd v1.5.2PL0 Copyright (c) Steve Scherf et al.
# Submitted via: ExactAudioCopy v1.0b4
#
DISCID=ac103f0d
DTITLE=Pete Cornelius And The DeVilles - Creatures Of The Night
DYEAR=2004
DGENRE=Blues
TTITLE0=Creatures Of The Night
TTITLE1=That Mars Song
TTITLE2=Billfish Bay
TTITLE3=Running In The Red
TTITLE4=Youth In Asia
TTITLE5=Ashers Room
TTITLE6=Help Cat Roar
TTITLE7=Rock 'n' Roll
TTITLE8=Cherry Bomb
TTITLE9=Stairway To Hell
TTITLE10=Goin' Down
TTITLE11=Albatross
TTITLE12=Bunglo Party
EXTD=
EXTT0=
EXTT1=
EXTT2=
EXTT3=
EXTT4=
EXTT5=
EXTT6=
EXTT7=
EXTT8=
EXTT9=
EXTT10=
EXTT11=
EXTT12=
PLAYORDER=
